<?xml version="1.0" encoding="UTF-8"?>
<!DOCTYPE svg PUBLIC "-//W3C//DTD SVG 1.1//EN" "http://www.w3.org/Graphics/SVG/1.1/DTD/svg11.dtd"><svg version="1.1" viewBox="0 0 29700 21000" preserveAspectRatio="xMidYMid" fill-rule="evenodd" xmlns="http://www.w3.org/2000/svg" xmlns:xlink="http://www.w3.org/1999/xlink"><g visibility="visible" id="Default"><desc>Master slide</desc><g style="stroke:none;fill:none"><rect x="986" y="986" width="27730" height="19030"/></g></g><g visibility="visible" id="page1"><desc>Slide</desc><g><desc>Drawing</desc><g><g style="stroke:none;fill:rgb(255,0,0)"><path d="M 12074,2905 L 3297,2905 3297,2805 3297,2705 12074,2705 12074,2805 12074,2905 Z"/><path d="M 2577,2805 L 3477,3105 3477,2505 2577,2805 Z"/></g><g/></g></g><g><desc>Drawing</desc><g><g style="stroke:none;fill:rgb(255,0,0)"><path d="M 2704,3402 L 11482,3402 11482,3502 11482,3602 2704,3602 2704,3502 2704,3402 Z"/><path d="M 12202,3502 L 11302,3202 11302,3802 12202,3502 Z"/></g><g/></g></g><g><desc>Drawing</desc><g><g style="stroke:none;fill:rgb(128,0,0)"><path d="M 2961,2005 L 4351,2005 4351,2105 4351,2205 2961,2205 2961,2105 2961,2005 Z"/><path d="M 5071,2105 L 4171,1805 4171,2405 5071,2105 Z"/></g><g/></g></g><g><desc>Drawing</desc><g><g style="stroke:none;fill:rgb(128,0,0)"><path d="M 11507,4111 L 12203,4111 12203,4211 12203,4311 11507,4311 11507,4211 11507,4111 Z"/><path d="M 10787,4211 L 11687,4511 11687,3911 10787,4211 Z"/></g><g/></g></g><g><desc>Drawing</desc><g><g style="stroke:none;fill:rgb(0,0,128)"><path d="M 12203,4111 C 12323,4111 12431,4118 12529,4131 L 12516,4230 12503,4329 C 12413,4317 12313,4311 12203,4311 L 12203,4211 12203,4111 Z"/><path d="M 12529,4131 C 12630,4145 12720,4164 12801,4189 L 12771,4285 12742,4381 C 12671,4359 12591,4341 12503,4329 L 12516,4230 12529,4131 Z"/><path d="M 12801,4189 C 12884,4215 12958,4246 13023,4282 L 12976,4370 12928,4458 C 12873,4428 12811,4402 12742,4381 L 12771,4285 12801,4189 Z"/><path d="M 13023,4282 C 13090,4319 13149,4360 13201,4405 L 13135,4480 13070,4556 C 13028,4520 12981,4487 12928,4458 L 12976,4370 13023,4282 Z"/><path d="M 13201,4405 C 13304,4494 13380,4598 13437,4710 L 13349,4756 13260,4802 C 13213,4712 13153,4628 13070,4556 L 13135,4480 13201,4405 Z"/><path d="M 13437,4710 C 13493,4818 13531,4932 13562,5047 L 13465,5073 13369,5098 C 13342,4998 13308,4897 13260,4802 L 13349,4756 13437,4710 Z"/><path d="M 13562,5047 C 13618,5256 13646,5466 13718,5623 L 13627,5665 13536,5706 C 13460,5540 13428,5320 13369,5098 L 13465,5073 13562,5047 Z"/><path d="M 13718,5623 C 13733,5657 13750,5687 13771,5714 L 13691,5775 13612,5836 C 13582,5797 13557,5754 13536,5706 L 13627,5665 13718,5623 Z"/><path d="M 13771,5714 C 13789,5739 13811,5760 13836,5778 L 13779,5860 13722,5942 C 13680,5913 13643,5877 13612,5836 L 13691,5775 13771,5714 Z"/><path d="M 13836,5778 C 13861,5795 13891,5809 13924,5818 L 13897,5915 13870,6011 C 13814,5995 13765,5972 13722,5942 L 13779,5860 13836,5778 Z"/><path d="M 13924,5818 C 13961,5829 14004,5834 14052,5834 L 14052,5934 14052,6034 C 13983,6034 13923,6026 13870,6011 L 13897,5915 13924,5818 Z"/></g><g/></g></g><g><desc>Drawing</desc><g><g style="stroke:none;fill:rgb(0,0,255)"><path d="M 25758,2919 L 17541,2919 17541,2819 17541,2719 25758,2719 25758,2819 25758,2919 Z"/><path d="M 16821,2819 L 17721,3119 17721,2519 16821,2819 Z"/></g><g/></g></g><g><desc>Drawing</desc><g><g style="stroke:none;fill:rgb(0,0,255)"><path d="M 17077,3383 L 25294,3383 25294,3483 25294,3583 17077,3583 17077,3483 17077,3383 Z"/><path d="M 26014,3483 L 25114,3183 25114,3783 26014,3483 Z"/></g><g/></g></g><g><desc>Drawing</desc><g><g style="stroke:none;fill:rgb(0,0,128)"><path d="M 26090,4285 L 24824,4285 24824,4185 24824,4085 26090,4085 26090,4185 26090,4285 Z"/><path d="M 24104,4185 L 25004,4485 25004,3885 24104,4185 Z"/></g><g/></g></g><g><desc>Drawing</desc><g><g style="stroke:none;fill:rgb(0,0,128)"><path d="M 18330,2236 L 17257,2236 17257,2136 17257,2036 18330,2036 18330,2136 18330,2236 Z"/><path d="M 19050,2136 L 18150,1836 18150,2436 19050,2136 Z"/></g><g/></g></g><g><desc>Drawing</desc><g><g style="stroke:none;fill:rgb(128,0,0)"><path d="M 17257,2236 C 17114,2236 16984,2232 16866,2224 L 16873,2124 16880,2024 C 16993,2032 17118,2036 17257,2036 L 17257,2136 17257,2236 Z"/><path d="M 16866,2224 C 16748,2216 16641,2204 16546,2189 L 16561,2090 16577,1991 C 16667,2006 16768,2017 16880,2024 L 16873,2124 16866,2224 Z"/><path d="M 16546,2189 C 16449,2174 16363,2155 16286,2134 L 16313,2037 16340,1941 C 16410,1961 16488,1977 16577,1991 L 16561,2090 16546,2189 Z"/><path d="M 16286,2134 C 16208,2112 16140,2087 16079,2061 L 16120,1969 16160,1878 C 16213,1901 16272,1922 16340,1941 L 16313,2037 16286,2134 Z"/><path d="M 16079,2061 C 15953,2005 15862,1939 15791,1869 L 15861,1798 15931,1727 C 15988,1782 16061,1833 16160,1878 L 16120,1969 16079,2061 Z"/><path d="M 15791,1869 C 15720,1800 15670,1725 15628,1651 L 15716,1602 15803,1553 C 15836,1612 15875,1671 15931,1727 L 15861,1798 15791,1869 Z"/><path d="M 15628,1651 C 15591,1584 15560,1518 15525,1455 L 15612,1406 15699,1357 C 15734,1419 15765,1486 15803,1553 L 15716,1602 15628,1651 Z"/><path d="M 15525,1455 C 15495,1402 15462,1352 15414,1310 L 15480,1235 15546,1160 C 15612,1218 15658,1285 15699,1357 L 15612,1406 15525,1455 Z"/><path d="M 15414,1310 C 15391,1290 15365,1271 15334,1255 L 15381,1167 15429,1078 C 15474,1103 15513,1130 15546,1160 L 15480,1235 15414,1310 Z"/><path d="M 15334,1255 C 15302,1237 15265,1222 15222,1210 L 15249,1114 15277,1018 C 15335,1035 15385,1055 15429,1078 L 15381,1167 15334,1255 Z"/><path d="M 15222,1210 C 15176,1197 15123,1186 15063,1179 L 15075,1080 15086,981 C 15159,989 15222,1002 15277,1018 L 15249,1114 15222,1210 Z"/><path d="M 15063,1179 C 15000,1172 14929,1168 14849,1168 L 14849,1068 14849,968 C 14938,968 15017,972 15086,981 L 15075,1080 15063,1179 Z"/></g><g/></g></g><g><desc>Drawing</desc><g><g style="stroke:none;fill:rgb(255,0,0)"><path d="M 1045,7871 L 9822,7871 9822,7971 9822,8071 1045,8071 1045,7971 1045,7871 Z"/><path d="M 10542,7971 L 9642,7671 9642,8271 10542,7971 Z"/></g><g/></g></g><g><desc>Drawing</desc><g><g style="stroke:none;fill:rgb(128,0,0)"><path d="M 9848,8580 L 10544,8580 10544,8680 10544,8780 9848,8780 9848,8680 9848,8580 Z"/><path d="M 9128,8680 L 10028,8980 10028,8380 9128,8680 Z"/></g><g/></g></g><g><desc>Drawing</desc><g><g style="stroke:none;fill:rgb(255,0,0)"><path d="M 9151,8776 L 2576,8776 2576,8676 2576,8576 9151,8576 9151,8676 9151,8776 Z"/><path d="M 1856,8676 L 2756,8976 2756,8376 1856,8676 Z"/></g><g/></g></g><g><desc>Drawing</desc><g><g style="stroke:none;fill:rgb(0,0,255)"><path d="M 10470,7870 L 12484,7870 12484,7970 12484,8070 10470,8070 10470,7970 10470,7870 Z"/><path d="M 13204,7970 L 12304,7670 12304,8270 13204,7970 Z"/></g><g/></g></g><g><desc>Drawing</desc><g><g style="stroke:none;fill:rgb(0,0,255)"><path d="M 26536,8702 L 19556,8696 19556,8596 19556,8496 26536,8502 26536,8602 26536,8702 Z"/><path d="M 18836,8596 L 19736,8896 19736,8296 18836,8596 Z"/></g><g/></g></g><g><desc>Drawing</desc><g><g style="stroke:none;fill:rgb(0,0,255)"><path d="M 20091,7787 L 26803,7791 26803,7891 26802,7991 20091,7987 20091,7887 20091,7787 Z"/><path d="M 27523,7891 L 26623,7591 26622,8191 27523,7891 Z"/></g><g/></g></g><g><desc>Drawing</desc><g><g style="stroke:none;fill:rgb(255,0,0)"><path d="M 18909,8697 L 16795,8697 16795,8597 16795,8497 18909,8497 18909,8597 18909,8697 Z"/><path d="M 16075,8597 L 16975,8897 16975,8297 16075,8597 Z"/></g><g/></g></g><g><desc>Drawing</desc><g><g style="stroke:none;fill:rgb(0,0,128)"><path d="M 10543,8580 L 14014,8573 14014,8673 14015,8773 10544,8780 10544,8680 10543,8580 Z"/></g><g/></g></g><g><desc>Drawing</desc><g><g style="stroke:none;fill:rgb(128,0,0)"><path d="M 18895,7986 L 15636,7986 15636,7886 15636,7786 18895,7786 18895,7886 18895,7986 Z"/></g><g/></g></g><g><desc>Drawing</desc><g><g style="stroke:none;fill:rgb(128,0,0)"><path d="M 1048,7877 L 2438,7877 2438,7977 2438,8077 1048,8077 1048,7977 1048,7877 Z"/><path d="M 3158,7977 L 2258,7677 2258,8277 3158,7977 Z"/></g><g/></g></g><g><desc>Drawing</desc><g><g style="stroke:none;fill:rgb(0,0,128)"><path d="M 28262,8702 L 26995,8702 26995,8602 26995,8502 28262,8502 28262,8602 28262,8702 Z"/><path d="M 26275,8602 L 27175,8902 27175,8302 26275,8602 Z"/></g><g/></g></g><g><desc>Drawing</desc><g><g style="stroke:none;fill:rgb(255,0,0)"><path d="M 1045,11318 L 10542,11318 10542,11418 10542,11518 1045,11518 1045,11418 1045,11318 Z"/><path d="M 1045,11118 L 1045,11718 1045,11118 Z"/><path d="M 10542,11118 L 10542,11718 10542,11118 Z"/></g><g/></g></g><g><desc>Drawing</desc><g><g style="stroke:none;fill:rgb(128,0,0)"><path d="M 9128,12026 L 10544,12026 10544,12126 10544,12226 9128,12226 9128,12126 9128,12026 Z"/><path d="M 9128,11826 L 9128,12426 9128,11826 Z"/></g><g/></g></g><g><desc>Drawing</desc><g><g style="stroke:none;fill:rgb(255,0,0)"><path d="M 9151,12223 L 1765,12223 1765,12123 1765,12023 9151,12023 9151,12123 9151,12223 Z"/><path d="M 1045,12123 L 1945,12423 1945,11823 1045,12123 Z"/></g><g/></g></g><g><desc>Drawing</desc><g><g style="stroke:none;fill:rgb(0,0,255)"><path d="M 10470,11317 L 13294,11317 13294,11417 13294,11517 10470,11517 10470,11417 10470,11317 Z"/><path d="M 14014,11417 L 13114,11117 13114,11717 14014,11417 Z"/></g><g/></g></g><g><desc>Drawing</desc><g><g style="stroke:none;fill:rgb(0,0,128)"><path d="M 10543,12026 L 14014,12020 14014,12120 14015,12220 10544,12226 10544,12126 10543,12026 Z"/></g><g/></g></g><g><desc>Drawing</desc><g><g style="stroke:none;fill:rgb(128,0,0)"><path d="M 1048,11323 L 3158,11323 3158,11423 3158,11523 1048,11523 1048,11423 1048,11323 Z"/><path d="M 1048,11123 L 1048,11723 1048,11123 Z"/><path d="M 3158,11123 L 3158,11723 3158,11123 Z"/></g><g/></g></g><g><desc>Drawing</desc><g><g style="stroke:none;fill:rgb(0,0,255)"><path d="M 26173,12143 L 18837,12143 18837,12043 18837,11943 26173,11943 26173,12043 26173,12143 Z"/><path d="M 26173,11743 L 26173,12343 26173,11743 Z"/><path d="M 18837,11743 L 18837,12343 18837,11743 Z"/></g><g/></g></g><g><desc>Drawing</desc><g><g style="stroke:none;fill:rgb(0,0,128)"><path d="M 20251,11435 L 18836,11435 18836,11335 18836,11235 20251,11235 20251,11335 20251,11435 Z"/><path d="M 20251,11035 L 20251,11635 20251,11035 Z"/></g><g/></g></g><g><desc>Drawing</desc><g><g style="stroke:none;fill:rgb(0,0,255)"><path d="M 19689,11239 L 27585,11239 27585,11339 27585,11439 19689,11439 19689,11339 19689,11239 Z"/><path d="M 28305,11339 L 27405,11039 27405,11639 28305,11339 Z"/></g><g/></g></g><g><desc>Drawing</desc><g><g style="stroke:none;fill:rgb(255,0,0)"><path d="M 18910,12145 L 16356,12145 16356,12045 16356,11945 18910,11945 18910,12045 18910,12145 Z"/><path d="M 15636,12045 L 16536,12345 16536,11745 15636,12045 Z"/></g><g/></g></g><g><desc>Drawing</desc><g><g style="stroke:none;fill:rgb(128,0,0)"><path d="M 18896,11434 L 15637,11434 15637,11334 15637,11234 18896,11234 18896,11334 18896,11434 Z"/></g><g/></g></g><g><desc>Drawing</desc><g><g style="stroke:none;fill:rgb(0,0,128)"><path d="M 28262,12149 L 26173,12149 26173,12049 26173,11949 28262,11949 28262,12049 28262,12149 Z"/><path d="M 26173,11749 L 26173,12349 26173,11749 Z"/></g><g/></g></g><g><desc>Drawing</desc><g><g style="stroke:none;fill:rgb(0,0,255)"><path d="M 20620,16499 L 13093,16485 13093,16385 13093,16285 20621,16299 20620,16399 20620,16499 Z"/><path d="M 20620,16099 L 20620,16699 20620,16099 Z"/><path d="M 13093,16085 L 13093,16685 13093,16085 Z"/></g><g/></g></g><g><desc>Drawing</desc><g><g style="stroke:none;fill:rgb(255,0,0)"><path d="M 13166,16486 L 10611,16486 10611,16386 10611,16286 13166,16286 13166,16386 13166,16486 Z"/><path d="M 9891,16386 L 10791,16686 10791,16086 9891,16386 Z"/></g><g/></g></g><g><desc>Drawing</desc><g><g style="stroke:none;fill:rgb(0,0,128)"><path d="M 22517,16499 L 20531,16499 20531,16399 20531,16299 22517,16299 22517,16399 22517,16499 Z"/><path d="M 20531,16099 L 20531,16699 20531,16099 Z"/></g><g/></g></g><g><desc>Drawing</desc><g><g style="stroke:none;fill:rgb(255,0,0)"><path d="M 3726,15659 L 13223,15659 13223,15759 13223,15859 3726,15859 3726,15759 3726,15659 Z"/><path d="M 3726,15459 L 3726,16059 3726,15459 Z"/><path d="M 13223,15459 L 13223,16059 13223,15459 Z"/></g><g/></g></g><g><desc>Drawing</desc><g><g style="stroke:none;fill:rgb(0,0,255)"><path d="M 13150,15658 L 15975,15658 15975,15758 15975,15858 13150,15858 13150,15758 13150,15658 Z"/><path d="M 16695,15758 L 15795,15458 15795,16058 16695,15758 Z"/></g><g/></g></g><g><desc>Drawing</desc><g><g style="stroke:none;fill:rgb(128,0,0)"><path d="M 3728,15665 L 5838,15665 5838,15765 5838,15865 3728,15865 3728,15765 3728,15665 Z"/><path d="M 3728,15465 L 3728,16065 3728,15465 Z"/><path d="M 5838,15465 L 5838,16065 5838,15465 Z"/></g><g/></g></g><g><desc>Drawing</desc><g><g style="stroke:none;fill:rgb(128,0,0)"><path d="M 3671,15306 L 5061,15306 5061,15406 5061,15506 3671,15506 3671,15406 3671,15306 Z"/><path d="M 5781,15406 L 4881,15106 4881,15706 5781,15406 Z"/></g><g/></g></g><g><desc>Drawing</desc><g><g style="stroke:none;fill:rgb(0,0,128)"><path d="M 22516,16923 L 21250,16923 21250,16823 21250,16723 22516,16723 22516,16823 22516,16923 Z"/><path d="M 20530,16823 L 21430,17123 21430,16523 20530,16823 Z"/></g><g/></g></g><g><desc>Drawing</desc><g><g style="stroke:none;fill:rgb(0,0,255)"><path d="M 20620,19563 L 13094,19549 13094,19449 13094,19349 20621,19363 20620,19463 20620,19563 Z"/><path d="M 20620,19163 L 20620,19763 20620,19163 Z"/><path d="M 13094,19149 L 13094,19749 13094,19149 Z"/></g><g/></g></g><g><desc>Drawing</desc><g><g style="stroke:none;fill:rgb(255,0,0)"><path d="M 13167,19550 L 4197,19550 4197,19450 4197,19350 13167,19350 13167,19450 13167,19550 Z"/><path d="M 3477,19450 L 4377,19750 4377,19150 3477,19450 Z"/></g><g/></g></g><g><desc>Drawing</desc><g><g style="stroke:none;fill:rgb(0,0,128)"><path d="M 22519,19563 L 20532,19563 20532,19463 20532,19363 22519,19363 22519,19463 22519,19563 Z"/><path d="M 20532,19163 L 20532,19763 20532,19163 Z"/></g><g/></g></g><g><desc>Drawing</desc><g><g style="stroke:none;fill:rgb(255,0,0)"><path d="M 3727,18723 L 13224,18723 13224,18823 13224,18923 3727,18923 3727,18823 3727,18723 Z"/><path d="M 3727,18523 L 3727,19123 3727,18523 Z"/><path d="M 13224,18523 L 13224,19123 13224,18523 Z"/></g><g/></g></g><g><desc>Drawing</desc><g><g style="stroke:none;fill:rgb(0,0,255)"><path d="M 13151,18722 L 22211,18722 22211,18822 22211,18922 13151,18922 13151,18822 13151,18722 Z"/><path d="M 22931,18822 L 22031,18522 22031,19122 22931,18822 Z"/></g><g/></g></g><g><desc>Drawing</desc><g><g style="stroke:none;fill:rgb(128,0,0)"><path d="M 3730,18728 L 5840,18728 5840,18828 5840,18928 3730,18928 3730,18828 3730,18728 Z"/><path d="M 3730,18528 L 3730,19128 3730,18528 Z"/><path d="M 5840,18528 L 5840,19128 5840,18528 Z"/></g><g/></g></g><g><desc>Drawing</desc><g><g style="stroke:none;fill:rgb(0,0,128)"><path d="M 19530,7987 L 18835,7987 18835,7887 18835,7787 19530,7787 19530,7887 19530,7987 Z"/><path d="M 20250,7887 L 19350,7587 19350,8187 20250,7887 Z"/></g><g/></g></g><g><desc>Drawing</desc><g><g style="stroke:none;fill:rgb(153,204,255)"><path d="M 6923,5124 L 7329,5124 7329,6948 7531,6948 7126,7556 6721,6948 6923,6948 6923,5124 Z M 6721,5124 L 6721,5124 Z M 7532,7557 L 7532,7557 Z"/></g><g style="stroke:rgb(0,0,0);fill:none"><path style="fill:none" d="M 6923,5124 L 6923,6948 6721,6948 7126,7556 7531,6948 7329,6948 7329,5124 6923,5124"/><path style="fill:none" d="M 6721,5124 L 6721,5124"/><path style="fill:none" d="M 7532,7557 L 7532,7557"/></g><g/></g></g><g><desc>Drawing</desc><g><g style="stroke:none;fill:rgb(153,204,255)"><path d="M 21513,5124 L 21919,5124 21919,6948 22122,6948 21716,7556 21310,6948 21513,6948 21513,5124 Z M 21310,5124 L 21310,5124 Z M 22122,7557 L 22122,7557 Z"/></g><g style="stroke:rgb(0,0,0);fill:none"><path style="fill:none" d="M 21513,5124 L 21513,6948 21310,6948 21716,7556 22122,6948 21919,6948 21919,5124 21513,5124"/><path style="fill:none" d="M 21310,5124 L 21310,5124"/><path style="fill:none" d="M 22122,7557 L 22122,7557"/></g><g/></g></g><g><desc>Drawing</desc><g><g style="stroke:none;fill:rgb(153,204,255)"><path d="M 6923,9177 L 7329,9177 7329,10393 7531,10393 7126,10798 6721,10393 6923,10393 6923,9177 Z M 6721,9177 L 6721,9177 Z M 7532,10799 L 7532,10799 Z"/></g><g style="stroke:rgb(0,0,0);fill:none"><path style="fill:none" d="M 6923,9177 L 6923,10393 6721,10393 7126,10798 7531,10393 7329,10393 7329,9177 6923,9177"/><path style="fill:none" d="M 6721,9177 L 6721,9177"/><path style="fill:none" d="M 7532,10799 L 7532,10799"/></g><g/></g></g><g><desc>Drawing</desc><g><g style="stroke:none;fill:rgb(153,204,255)"><path d="M 21513,9177 L 21919,9177 21919,10393 22122,10393 21716,10798 21310,10393 21513,10393 21513,9177 Z M 21310,9177 L 21310,9177 Z M 22122,10799 L 22122,10799 Z"/></g><g style="stroke:rgb(0,0,0);fill:none"><path style="fill:none" d="M 21513,9177 L 21513,10393 21310,10393 21716,10798 22122,10393 21919,10393 21919,9177 21513,9177"/><path style="fill:none" d="M 21310,9177 L 21310,9177"/><path style="fill:none" d="M 22122,10799 L 22122,10799"/></g><g/></g></g><g><desc>Drawing</desc><g><g style="stroke:none;fill:rgb(153,204,255)"><path d="M 12991,12751 L 13332,12530 14325,14059 14495,13949 14486,14680 13816,14390 13985,14280 12991,12751 Z M 12822,12861 L 12822,12861 Z M 14828,14459 L 14828,14459 Z"/></g><g style="stroke:rgb(0,0,0);fill:none"><path style="fill:none" d="M 12991,12751 L 13985,14280 13816,14390 14486,14680 14495,13949 14325,14059 13332,12530 12991,12751"/><path style="fill:none" d="M 12822,12861 L 12822,12861"/><path style="fill:none" d="M 14828,14459 L 14828,14459"/></g><g/></g></g><g><desc>Drawing</desc><g><g style="stroke:none;fill:rgb(153,204,255)"><path d="M 17900,12751 L 16907,14280 17077,14390 16405,14679 16396,13948 16566,14058 17559,12530 17900,12751 Z M 18070,12861 L 18070,12861 Z M 16064,14459 L 16064,14459 Z"/></g><g style="stroke:rgb(0,0,0);fill:none"><path style="fill:none" d="M 17900,12751 L 16907,14280 17077,14390 16405,14679 16396,13948 16566,14058 17559,12530 17900,12751"/><path style="fill:none" d="M 18070,12861 L 18070,12861"/><path style="fill:none" d="M 16064,14459 L 16064,14459"/></g><g/></g></g><g><desc>Drawing</desc><g><g style="stroke:none;fill:rgb(153,204,255)"><path d="M 15028,16727 L 15434,16727 15434,17943 15637,17943 15231,18348 14825,17943 15028,17943 15028,16727 Z M 14825,16727 L 14825,16727 Z M 15637,18349 L 15637,18349 Z"/></g><g style="stroke:rgb(0,0,0);fill:none"><path style="fill:none" d="M 15028,16727 L 15028,17943 14825,17943 15231,18348 15637,17943 15434,17943 15434,16727 15028,16727"/><path style="fill:none" d="M 14825,16727 L 14825,16727"/><path style="fill:none" d="M 15637,18349 L 15637,18349"/></g><g/></g></g></g></svg>